<svg width="14" height="14" viewBox="0 0 14 14" fill="none" xmlns="http://www.w3.org/2000/svg">
<g clip-path="url(#clip0_179483_264)">
<rect width="14" height="14" fill="white" fill-opacity="0.01"/>
<g clip-path="url(#clip1_179483_264)">
<path d="M12.5627 10.4383H11.4643C11.3893 10.4383 11.319 10.4712 11.2721 10.529C11.1627 10.6618 11.0455 10.7899 10.9221 10.9118C10.4172 11.4171 9.81924 11.8199 9.16116 12.0977C8.47938 12.3857 7.74658 12.5334 7.00648 12.5321C6.25804 12.5321 5.53304 12.3852 4.85179 12.0977C4.19371 11.8199 3.59571 11.4171 3.09085 10.9118C2.58509 10.4081 2.18181 9.81118 1.90335 9.15397C1.61429 8.47272 1.46898 7.74929 1.46898 7.00085C1.46898 6.25241 1.61585 5.52897 1.90335 4.84772C2.18148 4.18991 2.58148 3.59772 3.09085 3.08991C3.60023 2.5821 4.19241 2.1821 4.85179 1.90397C5.53304 1.61647 6.25804 1.4696 7.00648 1.4696C7.75491 1.4696 8.47991 1.61491 9.16116 1.90397C9.82054 2.1821 10.4127 2.5821 10.9221 3.08991C11.0455 3.21335 11.1612 3.34147 11.2721 3.47272C11.319 3.53054 11.3909 3.56335 11.4643 3.56335H12.5627C12.6612 3.56335 12.7221 3.45397 12.6674 3.37116C11.469 1.50866 9.3721 0.275848 6.98929 0.282098C3.24554 0.291473 0.243976 3.33054 0.281476 7.0696C0.318976 10.7493 3.31585 13.7196 7.00648 13.7196C9.38304 13.7196 11.4705 12.4883 12.6674 10.6305C12.7205 10.5477 12.6612 10.4383 12.5627 10.4383ZM13.9518 6.90241L11.7346 5.15241C11.6518 5.08679 11.5315 5.14616 11.5315 5.25085V6.43835H6.62523C6.55648 6.43835 6.50023 6.4946 6.50023 6.56335V7.43835C6.50023 7.5071 6.55648 7.56335 6.62523 7.56335H11.5315V8.75085C11.5315 8.85554 11.6534 8.91491 11.7346 8.84929L13.9518 7.09929C13.9667 7.08759 13.9788 7.07265 13.9871 7.0556C13.9954 7.03854 13.9998 7.01982 13.9998 7.00085C13.9998 6.98188 13.9954 6.96315 13.9871 6.9461C13.9788 6.92904 13.9667 6.9141 13.9518 6.90241Z" fill="black" fill-opacity="0.85"/>
</g>
</g>
<defs>
<clipPath id="clip0_179483_264">
<rect width="14" height="14" fill="white"/>
</clipPath>
<clipPath id="clip1_179483_264">
<rect width="14" height="14" fill="white"/>
</clipPath>
</defs>
</svg>
