<svg width="87" height="33" viewBox="0 0 87 33" fill="none" xmlns="http://www.w3.org/2000/svg">
<path d="M8.98438 8.34375V11.2656H0.609375V8.34375H8.98438ZM2.8125 4.1875H6.60938V20.4219C6.60938 20.9323 6.66146 21.3229 6.76562 21.5938C6.88021 21.8542 7.03646 22.0365 7.23438 22.1406C7.44271 22.2344 7.69271 22.2812 7.98438 22.2812C8.20312 22.2812 8.41146 22.2656 8.60938 22.2344C8.80729 22.1927 8.95312 22.1562 9.04688 22.125L9.03125 25.1719C8.75 25.2865 8.42708 25.3802 8.0625 25.4531C7.70833 25.526 7.28125 25.5625 6.78125 25.5625C6.01042 25.5625 5.32292 25.4062 4.71875 25.0938C4.125 24.7708 3.65625 24.2552 3.3125 23.5469C2.97917 22.8385 2.8125 21.901 2.8125 20.7344V4.1875Z" fill="#1890FF"/>
<path d="M19.4688 21.7188V13.4219C19.4688 12.8594 19.3906 12.4115 19.2344 12.0781C19.0885 11.7344 18.8698 11.4844 18.5781 11.3281C18.2865 11.1719 17.9271 11.0938 17.5 11.0938C17.0521 11.0938 16.6719 11.1875 16.3594 11.375C16.0469 11.5521 15.8125 11.8073 15.6562 12.1406C15.5 12.4635 15.4219 12.8438 15.4219 13.2812H11.5938C11.5938 12.5938 11.7344 11.9323 12.0156 11.2969C12.2969 10.6615 12.6979 10.099 13.2188 9.60938C13.75 9.11979 14.3854 8.73438 15.125 8.45312C15.875 8.17188 16.7083 8.03125 17.625 8.03125C18.7188 8.03125 19.6927 8.21354 20.5469 8.57812C21.401 8.94271 22.0729 9.52604 22.5625 10.3281C23.0521 11.1302 23.2969 12.1771 23.2969 13.4688V21.2812C23.2969 22.1042 23.3438 22.8229 23.4375 23.4375C23.5312 24.0417 23.6719 24.5625 23.8594 25V25.25H20C19.8229 24.8229 19.6875 24.2865 19.5938 23.6406C19.5104 22.9844 19.4688 22.3438 19.4688 21.7188ZM19.9688 14.9531L19.9844 17.375H18.2656C17.7656 17.375 17.3177 17.4427 16.9219 17.5781C16.5365 17.7135 16.2083 17.9115 15.9375 18.1719C15.6771 18.4219 15.474 18.724 15.3281 19.0781C15.1927 19.4323 15.125 19.8177 15.125 20.2344C15.125 20.7344 15.1979 21.1458 15.3438 21.4688C15.4896 21.7917 15.6979 22.0365 15.9688 22.2031C16.25 22.3594 16.5938 22.4375 17 22.4375C17.5625 22.4375 18.0469 22.3177 18.4531 22.0781C18.8698 21.8281 19.1875 21.5312 19.4062 21.1875C19.625 20.8438 19.7083 20.526 19.6562 20.2344L20.5156 21.7969C20.4219 22.1823 20.2656 22.5938 20.0469 23.0312C19.8281 23.4688 19.5417 23.8802 19.1875 24.2656C18.8438 24.651 18.4271 24.9635 17.9375 25.2031C17.4479 25.4427 16.875 25.5625 16.2188 25.5625C15.2812 25.5625 14.4375 25.3646 13.6875 24.9688C12.9479 24.5625 12.3646 23.9896 11.9375 23.25C11.5208 22.5 11.3125 21.6042 11.3125 20.5625C11.3125 19.7188 11.4531 18.9531 11.7344 18.2656C12.0156 17.5781 12.4271 16.9896 12.9688 16.5C13.5208 16 14.2188 15.6198 15.0625 15.3594C15.9062 15.0885 16.8906 14.9531 18.0156 14.9531H19.9688Z" fill="#1890FF"/>
<path d="M34.6562 20.7656C34.6562 20.4219 34.5521 20.1198 34.3438 19.8594C34.1458 19.599 33.8229 19.3385 33.375 19.0781C32.9375 18.8073 32.349 18.5156 31.6094 18.2031C30.8385 17.8906 30.151 17.5729 29.5469 17.25C28.9427 16.9167 28.4323 16.5521 28.0156 16.1562C27.599 15.7604 27.2812 15.3073 27.0625 14.7969C26.8542 14.2865 26.75 13.6927 26.75 13.0156C26.75 12.3177 26.8802 11.6719 27.1406 11.0781C27.401 10.474 27.776 9.94792 28.2656 9.5C28.7552 9.04167 29.349 8.68229 30.0469 8.42188C30.7448 8.16146 31.5312 8.03125 32.4062 8.03125C33.6354 8.03125 34.6875 8.25521 35.5625 8.70312C36.4375 9.14062 37.1094 9.75521 37.5781 10.5469C38.0573 11.3281 38.2969 12.2344 38.2969 13.2656H34.4844C34.4844 12.849 34.4115 12.474 34.2656 12.1406C34.1198 11.7969 33.8906 11.526 33.5781 11.3281C33.276 11.1302 32.8854 11.0312 32.4062 11.0312C31.9792 11.0312 31.6198 11.1146 31.3281 11.2812C31.0365 11.4375 30.8125 11.651 30.6562 11.9219C30.5104 12.1927 30.4375 12.5 30.4375 12.8438C30.4375 13.0938 30.4844 13.3177 30.5781 13.5156C30.6719 13.7031 30.8281 13.8854 31.0469 14.0625C31.2656 14.2396 31.5625 14.4219 31.9375 14.6094C32.3125 14.7969 32.7812 15.0104 33.3438 15.25C34.4688 15.6771 35.401 16.1302 36.1406 16.6094C36.8906 17.0781 37.4531 17.6302 37.8281 18.2656C38.2031 18.8906 38.3906 19.6667 38.3906 20.5938C38.3906 21.3333 38.25 22.0104 37.9688 22.625C37.6875 23.2292 37.2865 23.7552 36.7656 24.2031C36.2448 24.6406 35.6198 24.9792 34.8906 25.2188C34.1615 25.4479 33.3438 25.5625 32.4375 25.5625C31.1042 25.5625 29.9792 25.2969 29.0625 24.7656C28.1458 24.2344 27.4531 23.5521 26.9844 22.7188C26.5156 21.8854 26.2812 21.0052 26.2812 20.0781H29.9531C29.974 20.7135 30.1042 21.2135 30.3438 21.5781C30.5833 21.9427 30.8906 22.1979 31.2656 22.3438C31.651 22.4792 32.0573 22.5469 32.4844 22.5469C32.974 22.5469 33.375 22.4792 33.6875 22.3438C34.0104 22.1979 34.25 21.9896 34.4062 21.7188C34.5729 21.4479 34.6562 21.1302 34.6562 20.7656Z" fill="#1890FF"/>
<path d="M45.2969 1.25V25.25H41.4688V1.25H45.2969ZM54.0781 8.34375L48.0938 16.5781L44.4688 20.6719L43.4062 17.4375L46.0781 13.5938L49.5156 8.34375H54.0781ZM50.2188 25.25L46.1562 17.375L48.6094 14.6719L54.6094 25.25H50.2188Z" fill="#1890FF"/>
<path d="M60.5 8.34375V25.25H56.6719V8.34375H60.5ZM56.4844 3.9375C56.4844 3.33333 56.6719 2.83333 57.0469 2.4375C57.4219 2.03125 57.9375 1.82812 58.5938 1.82812C59.2604 1.82812 59.776 2.02604 60.1406 2.42188C60.5156 2.81771 60.7031 3.31771 60.7031 3.92188C60.7031 4.51562 60.5156 5.01562 60.1406 5.42188C59.776 5.81771 59.2604 6.01562 58.5938 6.01562C57.9375 6.01562 57.4219 5.81771 57.0469 5.42188C56.6719 5.01562 56.4844 4.52083 56.4844 3.9375Z" fill="#1890FF"/>
<path d="M69.2031 25.25H65.3906V6.76562C65.3906 5.49479 65.599 4.42708 66.0156 3.5625C66.4427 2.69792 67.0469 2.04167 67.8281 1.59375C68.6198 1.14583 69.5573 0.921875 70.6406 0.921875C70.974 0.921875 71.2969 0.947917 71.6094 1C71.9219 1.05208 72.2292 1.125 72.5312 1.21875L72.4531 4.29688C72.3073 4.25521 72.1302 4.22396 71.9219 4.20312C71.7135 4.18229 71.5104 4.17188 71.3125 4.17188C70.8646 4.17188 70.4792 4.27083 70.1562 4.46875C69.8438 4.66667 69.6042 4.95833 69.4375 5.34375C69.2812 5.72917 69.2031 6.20312 69.2031 6.76562V25.25ZM71.9219 8.34375V11.2656H63.2812V8.34375H71.9219Z" fill="#1890FF"/>
<path d="M78.7969 23.375L82.4062 8.34375H86.3906L80.8281 27.8125C80.7031 28.2292 80.526 28.6823 80.2969 29.1719C80.0781 29.6719 79.7917 30.1406 79.4375 30.5781C79.0938 31.026 78.6615 31.3854 78.1406 31.6562C77.6198 31.9375 76.9948 32.0781 76.2656 32.0781C75.9531 32.0781 75.6667 32.0521 75.4062 32C75.1458 31.9479 74.8802 31.8802 74.6094 31.7969L74.5938 28.7656C74.6875 28.7656 74.7812 28.7708 74.875 28.7812C74.9792 28.7917 75.0729 28.7969 75.1562 28.7969C75.6562 28.7969 76.0677 28.724 76.3906 28.5781C76.724 28.4323 76.9948 28.1979 77.2031 27.875C77.4115 27.5625 77.5938 27.1562 77.75 26.6562L78.7969 23.375ZM77.3594 8.34375L80.2344 20.8125L80.875 25.0938L78.2656 25.6562L73.25 8.34375H77.3594Z" fill="#1890FF"/>
</svg>
