<svg width="24" height="24" viewBox="0 0 24 24" fill="none" xmlns="http://www.w3.org/2000/svg">
<path d="M20.1429 18.8539H19.5V9.74674C19.5 5.96728 16.7063 2.84406 13.0714 2.32442V1.28246C13.0714 0.690493 12.592 0.211029 12 0.211029C11.408 0.211029 10.9286 0.690493 10.9286 1.28246V2.32442C7.29375 2.84406 4.5 5.96728 4.5 9.74674V18.8539H3.85714C3.38304 18.8539 3 19.2369 3 19.711V20.5682C3 20.686 3.09643 20.7825 3.21429 20.7825H9C9 22.4378 10.3446 23.7825 12 23.7825C13.6554 23.7825 15 22.4378 15 20.7825H20.7857C20.9036 20.7825 21 20.686 21 20.5682V19.711C21 19.2369 20.617 18.8539 20.1429 18.8539ZM12 22.0682C11.2902 22.0682 10.7143 21.4923 10.7143 20.7825H13.2857C13.2857 21.4923 12.7098 22.0682 12 22.0682ZM6.42857 18.8539V9.74674C6.42857 8.25746 7.00714 6.85924 8.05982 5.80657C9.1125 4.75389 10.5107 4.17532 12 4.17532C13.4893 4.17532 14.8875 4.75389 15.9402 5.80657C16.9929 6.85924 17.5714 8.25746 17.5714 9.74674V18.8539H6.42857Z" fill="black" fill-opacity="0.85"/>
</svg>
