<svg width="24" height="4" viewBox="0 0 24 4" fill="none" xmlns="http://www.w3.org/2000/svg">
<path d="M2 4C2.53043 4 3.03914 3.78929 3.41421 3.41421C3.78929 3.03914 4 2.53043 4 2C4 1.46957 3.78929 0.960861 3.41421 0.585788C3.03914 0.210715 2.53043 8.43066e-07 2 8.66252e-07C1.46957 8.89438e-07 0.960859 0.210715 0.585786 0.585788C0.210714 0.960861 -1.10609e-07 1.46957 -8.74228e-08 2C-6.42368e-08 2.53043 0.210714 3.03914 0.585787 3.41421C0.960859 3.78929 1.46957 4 2 4ZM12 4C12.5304 4 13.0391 3.78929 13.4142 3.41421C13.7893 3.03914 14 2.53043 14 2C14 1.46957 13.7893 0.96086 13.4142 0.585787C13.0391 0.210715 12.5304 4.05952e-07 12 4.29138e-07C11.4696 4.52324e-07 10.9609 0.210715 10.5858 0.585788C10.2107 0.96086 10 1.46957 10 2C10 2.53043 10.2107 3.03914 10.5858 3.41421C10.9609 3.78929 11.4696 4 12 4ZM22 4C22.5304 4 23.0391 3.78929 23.4142 3.41421C23.7893 3.03914 24 2.53043 24 2C24 1.46957 23.7893 0.96086 23.4142 0.585787C23.0391 0.210714 22.5304 -3.11622e-08 22 -7.97631e-09C21.4696 1.52097e-08 20.9609 0.210714 20.5858 0.585787C20.2107 0.96086 20 1.46957 20 2C20 2.53043 20.2107 3.03914 20.5858 3.41421C20.9609 3.78929 21.4696 4 22 4Z" fill="black" fill-opacity="0.85"/>
</svg>
