<svg width="14" height="14" viewBox="0 0 14 14" fill="none" xmlns="http://www.w3.org/2000/svg">
<path d="M12.1186 5.7792L10.703 1.35264C10.6938 1.32302 10.6753 1.29714 10.6502 1.27885C10.6252 1.26056 10.5949 1.25082 10.5639 1.25107H9.35453C9.29046 1.25107 9.23578 1.2917 9.21546 1.35264L7.7889 5.7792C7.78421 5.79326 7.78109 5.80889 7.78109 5.82451C7.78109 5.9042 7.84671 5.96982 7.9264 5.96982H8.80765C8.87328 5.96982 8.92953 5.92607 8.94828 5.86357L9.22171 4.90107H10.6123L10.8827 5.86201C10.8998 5.92451 10.9577 5.96826 11.0233 5.96826H11.9795C11.9952 5.96826 12.0092 5.9667 12.0233 5.96201C12.0608 5.94951 12.0905 5.92451 12.1092 5.89014C12.1264 5.85576 12.1295 5.8167 12.1186 5.7792V5.7792ZM9.3639 4.08701L9.8764 2.26045H9.97484L10.4764 4.08701H9.3639V4.08701ZM11.6061 11.7886H9.58109V11.7823L11.653 8.83076C11.6702 8.80576 11.6795 8.77764 11.6795 8.74639V8.17764C11.6795 8.09795 11.6139 8.03232 11.5342 8.03232H8.34671C8.26703 8.03232 8.2014 8.09795 8.2014 8.17764V8.84951C8.2014 8.9292 8.26703 8.99482 8.34671 8.99482H10.2623V9.00107L8.18265 11.9526C8.16529 11.9773 8.15601 12.0068 8.15609 12.037V12.6058C8.15609 12.6854 8.22171 12.7511 8.3014 12.7511H11.6045C11.6842 12.7511 11.7498 12.6854 11.7498 12.6058V11.9339C11.75 11.9149 11.7465 11.896 11.7393 11.8784C11.7322 11.8608 11.7217 11.8447 11.7083 11.8312C11.6949 11.8177 11.679 11.807 11.6615 11.7997C11.6439 11.7923 11.6251 11.7886 11.6061 11.7886V11.7886ZM5.49984 9.96982H4.31234V1.68857C4.31234 1.61982 4.25609 1.56357 4.18734 1.56357H3.31234C3.24359 1.56357 3.18734 1.61982 3.18734 1.68857V9.96982H1.99984C1.89515 9.96982 1.83578 10.0917 1.9014 10.1729L3.6514 12.3901C3.66309 12.4051 3.67803 12.4172 3.69509 12.4255C3.71214 12.4338 3.73087 12.4381 3.74984 12.4381C3.76881 12.4381 3.78753 12.4338 3.80459 12.4255C3.82164 12.4172 3.83658 12.4051 3.84828 12.3901L5.59828 10.1729C5.66234 10.0917 5.60453 9.96982 5.49984 9.96982Z" fill="black" fill-opacity="0.85"/>
</svg>
